<mxfile host="65bd71144e">
    <diagram id="Z1BkGPArPPO6ZUG4Uibz" name="Page-1">
        <mxGraphModel dx="748" dy="332" grid="1" gridSize="10" guides="1" tooltips="1" connect="1" arrows="1" fold="1" page="1" pageScale="1" pageWidth="850" pageHeight="1100" math="0" shadow="0">
            <root>
                <mxCell id="0"/>
                <mxCell id="1" parent="0"/>
                <mxCell id="2" value="emp input" style="rounded=0;whiteSpace=wrap;html=1;fillColor=#1ba1e2;fontColor=#ffffff;strokeColor=#006EAF;" parent="1" vertex="1">
                    <mxGeometry x="275" y="80" width="135" height="30" as="geometry"/>
                </mxCell>
                <mxCell id="3" value="date input" style="rounded=0;whiteSpace=wrap;html=1;fillColor=#1ba1e2;fontColor=#ffffff;strokeColor=#006EAF;" parent="1" vertex="1">
                    <mxGeometry x="275" y="115" width="135" height="30" as="geometry"/>
                </mxCell>
                <mxCell id="5" value="" style="endArrow=classic;html=1;" parent="1" edge="1">
                    <mxGeometry width="50" height="50" relative="1" as="geometry">
                        <mxPoint x="350" y="192" as="sourcePoint"/>
                        <mxPoint x="540" y="222" as="targetPoint"/>
                    </mxGeometry>
                </mxCell>
                <mxCell id="6" value="" style="endArrow=classic;html=1;" parent="1" edge="1">
                    <mxGeometry width="50" height="50" relative="1" as="geometry">
                        <mxPoint x="330" y="191" as="sourcePoint"/>
                        <mxPoint x="160" y="221" as="targetPoint"/>
                    </mxGeometry>
                </mxCell>
                <mxCell id="7" value="status input" style="rounded=0;whiteSpace=wrap;html=1;fillColor=#1ba1e2;fontColor=#ffffff;strokeColor=#006EAF;" parent="1" vertex="1">
                    <mxGeometry x="275" y="150" width="135" height="30" as="geometry"/>
                </mxCell>
                <mxCell id="8" value="present" style="rounded=1;whiteSpace=wrap;html=1;fillColor=#6a00ff;fontColor=#ffffff;strokeColor=#3700CC;" parent="1" vertex="1">
                    <mxGeometry x="100" y="238" width="120" height="30" as="geometry"/>
                </mxCell>
                <mxCell id="10" value="absent" style="rounded=1;whiteSpace=wrap;html=1;fillColor=#6a00ff;fontColor=#ffffff;strokeColor=#3700CC;" parent="1" vertex="1">
                    <mxGeometry x="480" y="238" width="120" height="30" as="geometry"/>
                </mxCell>
                <mxCell id="11" value="" style="endArrow=classic;html=1;" parent="1" edge="1">
                    <mxGeometry width="50" height="50" relative="1" as="geometry">
                        <mxPoint x="339" y="188" as="sourcePoint"/>
                        <mxPoint x="339" y="232" as="targetPoint"/>
                    </mxGeometry>
                </mxCell>
                <mxCell id="12" value="leave on" style="rounded=1;whiteSpace=wrap;html=1;fillColor=#6a00ff;fontColor=#ffffff;strokeColor=#3700CC;" parent="1" vertex="1">
                    <mxGeometry x="285" y="238" width="120" height="30" as="geometry"/>
                </mxCell>
                <mxCell id="13" value="no info is required" style="rounded=1;whiteSpace=wrap;html=1;fillColor=#1ba1e2;fontColor=#ffffff;strokeColor=#006EAF;" parent="1" vertex="1">
                    <mxGeometry x="285" y="278" width="315" height="30" as="geometry"/>
                </mxCell>
                <mxCell id="14" value="another inputs (req):&lt;div&gt;- checkIn&lt;/div&gt;&lt;div&gt;&lt;br&gt;&lt;/div&gt;&lt;div&gt;&lt;font style=&quot;color: light-dark(rgb(0, 0, 0), rgb(0, 0, 0));&quot;&gt;calculated:&lt;/font&gt;&lt;/div&gt;&lt;div&gt;- calc: late&lt;/div&gt;" style="rounded=1;whiteSpace=wrap;html=1;fillColor=#1ba1e2;fontColor=#ffffff;strokeColor=#006EAF;" parent="1" vertex="1">
                    <mxGeometry x="100" y="278" width="120" height="92" as="geometry"/>
                </mxCell>
                <mxCell id="21" value="" style="edgeStyle=none;html=1;" edge="1" parent="1" source="16" target="2">
                    <mxGeometry relative="1" as="geometry"/>
                </mxCell>
                <mxCell id="16" value="createCheckIn" style="shape=trapezoid;perimeter=trapezoidPerimeter;whiteSpace=wrap;html=1;fixedSize=1;fillColor=#60a917;fontColor=#ffffff;strokeColor=#2D7600;" parent="1" vertex="1">
                    <mxGeometry x="270" y="30" width="150" height="30" as="geometry"/>
                </mxCell>
                <mxCell id="17" value="updateAttendance" style="shape=trapezoid;perimeter=trapezoidPerimeter;whiteSpace=wrap;html=1;fixedSize=1;fillColor=#60a917;fontColor=#ffffff;strokeColor=#2D7600;" parent="1" vertex="1">
                    <mxGeometry x="670" y="30" width="150" height="30" as="geometry"/>
                </mxCell>
                <mxCell id="18" value="update date or checkIn or ckeckOut or status or combination or both&lt;div&gt;changing status will affect checkIn and checkOut&lt;/div&gt;" style="rounded=1;whiteSpace=wrap;html=1;fillColor=#1ba1e2;fontColor=#ffffff;strokeColor=#006EAF;" parent="1" vertex="1">
                    <mxGeometry x="600" y="68" width="240" height="82" as="geometry"/>
                </mxCell>
                <mxCell id="19" value="getAttendance" style="shape=trapezoid;perimeter=trapezoidPerimeter;whiteSpace=wrap;html=1;fixedSize=1;fillColor=#60a917;fontColor=#ffffff;strokeColor=#2D7600;" parent="1" vertex="1">
                    <mxGeometry x="85" y="460" width="150" height="30" as="geometry"/>
                </mxCell>
                <mxCell id="20" value="pushing to query object to get them all or filter" style="rounded=0;whiteSpace=wrap;html=1;fillColor=#1ba1e2;fontColor=#ffffff;strokeColor=#006EAF;" parent="1" vertex="1">
                    <mxGeometry x="55" y="500" width="210" height="50" as="geometry"/>
                </mxCell>
                <mxCell id="22" value="createCheckOut" style="shape=trapezoid;perimeter=trapezoidPerimeter;whiteSpace=wrap;html=1;fixedSize=1;fillColor=#60a917;fontColor=#ffffff;strokeColor=#2D7600;" vertex="1" parent="1">
                    <mxGeometry x="490" y="410" width="150" height="30" as="geometry"/>
                </mxCell>
                <mxCell id="23" value="checkout input to calculate overtime" style="rounded=0;whiteSpace=wrap;html=1;fillColor=#1ba1e2;fontColor=#ffffff;strokeColor=#006EAF;" vertex="1" parent="1">
                    <mxGeometry x="497.5" y="450" width="135" height="60" as="geometry"/>
                </mxCell>
            </root>
        </mxGraphModel>
    </diagram>
</mxfile>